<?xml version="1.0" encoding="UTF-8"?>
<svg width="678px" height="72px" viewBox="0 0 678 72" version="1.1" xmlns="http://www.w3.org/2000/svg" xmlns:xlink="http://www.w3.org/1999/xlink">
    <title>主图</title>
    <g id="页面-1" stroke="none" stroke-width="1" fill="none" fill-rule="evenodd">
        <g id="MacBook-Pro-13&quot;备份" transform="translate(-120, -257)" fill="#FFFFFF">
            <g id="主图" transform="translate(120, 256.612)">
                <path d="M28.818,4.724 C25.93,4.724 23.574,5.674 21.826,7.65 C20.116,9.474 19.242,11.906 19.204,14.946 L23.346,14.946 C23.422,12.742 23.878,11.108 24.79,9.968 C25.664,8.79 26.956,8.22 28.666,8.22 C30.262,8.22 31.516,8.6 32.352,9.36 C33.188,10.12 33.606,11.26 33.606,12.78 C33.606,14.376 32.96,15.858 31.744,17.226 C30.984,18.024 29.692,19.05 27.868,20.342 C24.79,22.47 22.738,24.104 21.75,25.282 C19.926,27.334 19.052,29.69 19.052,32.388 L37.748,32.388 L37.748,28.74 L24.182,28.74 C24.752,27.258 26.5,25.548 29.426,23.61 C32.124,21.786 33.986,20.342 35.05,19.24 C36.798,17.302 37.71,15.174 37.71,12.818 C37.71,10.424 36.874,8.486 35.24,6.966 C33.568,5.446 31.402,4.724 28.818,4.724 Z M51.2,4.724 C48.008,4.724 45.538,6.054 43.79,8.752 C42.194,11.222 41.396,14.566 41.396,18.822 C41.396,23.04 42.194,26.384 43.79,28.892 C45.538,31.552 48.008,32.92 51.2,32.92 C54.392,32.92 56.862,31.552 58.61,28.892 C60.206,26.384 61.004,23.002 61.004,18.822 C61.004,14.604 60.206,11.26 58.61,8.752 C56.862,6.054 54.392,4.724 51.2,4.724 Z M51.2,8.22 C53.404,8.22 55,9.436 55.912,11.906 C56.558,13.578 56.9,15.896 56.9,18.822 C56.9,21.71 56.558,24.028 55.912,25.738 C55,28.17 53.404,29.424 51.2,29.424 C48.958,29.424 47.4,28.17 46.488,25.738 C45.804,24.028 45.5,21.71 45.5,18.822 C45.5,15.896 45.804,13.578 46.488,11.906 C47.4,9.436 48.958,8.22 51.2,8.22 Z M74.418,4.724 C71.53,4.724 69.174,5.674 67.426,7.65 C65.716,9.474 64.842,11.906 64.804,14.946 L68.946,14.946 C69.022,12.742 69.478,11.108 70.39,9.968 C71.264,8.79 72.556,8.22 74.266,8.22 C75.862,8.22 77.116,8.6 77.952,9.36 C78.788,10.12 79.206,11.26 79.206,12.78 C79.206,14.376 78.56,15.858 77.344,17.226 C76.584,18.024 75.292,19.05 73.468,20.342 C70.39,22.47 68.338,24.104 67.35,25.282 C65.526,27.334 64.652,29.69 64.652,32.388 L83.348,32.388 L83.348,28.74 L69.782,28.74 C70.352,27.258 72.1,25.548 75.026,23.61 C77.724,21.786 79.586,20.342 80.65,19.24 C82.398,17.302 83.31,15.174 83.31,12.818 C83.31,10.424 82.474,8.486 80.84,6.966 C79.168,5.446 77.002,4.724 74.418,4.724 Z M89.01,5.256 L87.528,20.456 L91.404,20.456 C91.936,19.468 92.658,18.746 93.646,18.29 C94.558,17.834 95.584,17.644 96.8,17.644 C98.624,17.644 99.992,18.176 100.98,19.24 C101.968,20.304 102.462,21.786 102.462,23.686 C102.462,25.434 101.892,26.802 100.752,27.866 C99.612,28.892 98.206,29.424 96.534,29.424 C95.014,29.424 93.798,29.082 92.886,28.398 C91.86,27.638 91.252,26.46 91.1,24.94 L87.034,24.94 C87.224,27.448 88.288,29.462 90.226,30.906 C91.974,32.236 94.064,32.92 96.496,32.92 C99.194,32.92 101.512,32.122 103.45,30.526 C105.502,28.74 106.566,26.46 106.566,23.648 C106.566,20.722 105.73,18.442 104.134,16.77 C102.538,15.098 100.448,14.262 97.902,14.262 C96.686,14.262 95.546,14.452 94.558,14.87 C93.456,15.25 92.506,15.858 91.67,16.732 L91.556,16.732 L92.354,8.904 L105.35,8.904 L105.35,5.256 L89.01,5.256 Z M121.69,5.256 L130.81,18.366 L121.044,32.388 L126.098,32.388 L133.356,21.634 L140.614,32.388 L145.668,32.388 L135.826,18.366 L145.022,5.256 L139.968,5.256 L133.356,15.06 L126.744,5.256 L121.69,5.256 Z M165.656,6.89 L168.962,6.89 C168.886,7.878 168.772,8.828 168.62,9.778 L163.148,9.778 C164.022,8.98 164.858,8.03 165.656,6.89 Z M167.632,13.084 L167.556,13.236 C166.34,15.744 163.794,17.834 159.842,19.582 L162.274,22.508 C163.414,21.976 164.44,21.368 165.428,20.76 L165.428,36.378 L169.038,36.378 L169.038,34.896 L186.974,34.896 L186.974,36.378 L190.622,36.378 L190.622,20.228 L176.106,20.228 L178.348,17.948 C176.372,16.504 174.016,15.06 171.204,13.616 C171.242,13.464 171.28,13.274 171.356,13.084 L178.918,13.084 L178.918,9.778 L172.116,9.778 C172.268,8.866 172.344,7.916 172.42,6.89 L177.854,6.89 L177.854,3.698 L167.442,3.698 C167.746,3.014 168.05,2.33 168.316,1.57 L165.086,0.886 C163.794,3.774 162.236,5.978 160.488,7.536 L162.274,9.778 L160.564,9.778 L160.564,13.084 L167.632,13.084 Z M169.038,31.704 L169.038,29.196 L186.974,29.196 L186.974,31.704 L169.038,31.704 Z M169.038,26.08 L169.038,23.42 L186.974,23.42 L186.974,26.08 L169.038,26.08 Z M166.188,20.228 C167.822,19.012 169.114,17.682 170.026,16.238 C172.23,17.606 174.016,18.936 175.46,20.228 L166.188,20.228 Z M180.096,3.736 L180.096,18.1 L193.396,18.1 L193.396,3.736 L180.096,3.736 Z M189.862,14.946 L183.63,14.946 L183.63,6.928 L189.862,6.928 L189.862,14.946 Z M203.808,23.496 L211.636,23.496 L211.636,26.27 L203.808,26.27 L203.808,23.496 Z M211.636,20.532 L203.808,20.532 L203.808,17.606 L211.636,17.606 L211.636,20.532 Z M203.808,29.272 L211.636,29.272 L211.636,31.4 C211.636,32.388 211.18,32.882 210.306,32.882 L207.608,32.73 L208.482,36.112 L211.446,36.112 C213.878,36.112 215.132,34.782 215.132,32.16 L215.132,14.452 L200.312,14.452 L200.312,36.378 L203.808,36.378 L203.808,29.272 Z M228.09,18.062 C229.458,18.062 230.484,17.758 231.168,17.188 C231.852,16.542 232.384,14.642 232.688,11.488 L229.306,10.386 C229.23,12.514 229.002,13.806 228.698,14.262 C228.432,14.642 228.014,14.832 227.406,14.832 L222.884,14.832 C221.972,14.832 221.516,14.186 221.516,12.97 L221.516,9.17 C225.582,8.562 229.154,7.878 232.27,7.156 L231.092,3.964 C228.622,4.648 225.43,5.256 221.516,5.864 L221.516,1.38 L217.944,1.38 L217.944,13.73 C217.944,16.618 219.236,18.062 221.896,18.062 L228.09,18.062 Z M221.516,26.84 C225.316,26.46 228.926,25.852 232.27,24.94 L231.092,21.71 C228.28,22.546 225.088,23.192 221.516,23.572 L221.516,19.392 L217.944,19.392 L217.944,32.274 C217.944,34.554 219.236,35.732 221.82,35.732 L228.128,35.732 C229.534,35.732 230.56,35.428 231.206,34.858 C231.89,34.25 232.384,32.35 232.688,29.158 L229.42,28.094 C229.306,30.222 229.078,31.514 228.774,31.97 C228.508,32.312 228.052,32.502 227.444,32.502 L222.846,32.502 C221.934,32.502 221.516,32.16 221.516,31.476 L221.516,26.84 Z M212.396,3.888 L209.622,5.636 C210.382,6.738 211.104,7.802 211.788,8.866 C208.71,9.246 205.822,9.55 203.162,9.702 C205.138,7.802 206.924,5.332 208.52,2.216 L205.062,1.19 C203.846,3.774 202.06,6.358 199.742,8.942 C199.286,9.322 198.754,9.626 198.108,9.854 L199.096,12.856 C204.644,12.552 209.394,12.096 213.346,11.488 C213.802,12.286 214.22,13.084 214.6,13.844 L217.564,11.716 C216.348,9.512 214.638,6.89 212.396,3.888 Z M236.716,10.918 L236.716,14.414 L250.662,14.414 C248.648,23.306 243.708,29.69 235.88,33.49 L238.198,36.53 C245.912,32.464 251.042,26.08 253.55,17.378 C256.438,25.434 261.568,31.704 268.864,36.188 L271.106,33.262 C263.582,28.816 258.452,22.546 255.792,14.414 L270.308,14.414 L270.308,10.918 L254.88,10.918 C255.184,8.638 255.336,6.244 255.336,3.736 L255.336,1.266 L251.688,1.266 L251.688,4.572 C251.65,6.776 251.498,8.904 251.27,10.918 L236.716,10.918 Z M290.182,1.152 C285.774,6.13 280.226,10.272 273.576,13.616 L275.514,17.112 C277.87,15.82 280.074,14.452 282.126,13.008 L282.126,16.01 L301.012,16.01 L301.012,13.16 C302.988,14.604 305.078,15.896 307.358,17.074 L309.334,13.578 C303.102,10.538 297.63,6.396 292.842,1.152 L290.182,1.152 Z M282.696,12.59 C286.116,10.12 289.042,7.384 291.512,4.382 C294.058,7.422 296.984,10.158 300.252,12.59 L282.696,12.59 Z M276.16,20.228 L276.16,23.724 L285.052,23.724 C283.608,26.384 281.86,28.892 279.808,31.286 C279.428,31.704 278.82,32.046 277.946,32.274 L278.934,35.39 C287.826,34.858 295.236,34.136 301.126,33.224 C301.848,34.25 302.532,35.276 303.178,36.264 L306.18,34.136 C304.28,31.362 301.62,28.094 298.162,24.332 L295.35,26.118 C296.718,27.638 297.972,29.12 299.112,30.602 C294.02,31.21 288.776,31.666 283.304,31.97 C285.546,29.614 287.522,26.878 289.232,23.724 L306.94,23.724 L306.94,20.228 L276.16,20.228 Z M17.34,56.108 L17.34,57.528 L22.38,57.528 L22.38,70.388 L24,70.388 L24,57.528 L29.04,57.528 L29.04,56.108 L17.34,56.108 Z M31.6460872,55.828 L31.6460872,70.388 L33.2460872,70.388 L33.2460872,64.488 C33.2460872,63.528 33.5060872,62.708 34.0460872,62.068 C34.5660872,61.428 35.2260872,61.108 36.0260872,61.108 C36.8860872,61.108 37.5460872,61.368 38.0260872,61.888 C38.4660872,62.408 38.7060872,63.148 38.7060872,64.108 L38.7060872,70.388 L40.3060872,70.388 L40.3060872,63.868 C40.3060872,62.548 39.9860872,61.528 39.3460872,60.828 C38.7060872,60.108 37.7660872,59.768 36.5660872,59.768 C35.8660872,59.768 35.2460872,59.928 34.6860872,60.248 C34.0860872,60.588 33.6060872,61.088 33.2460872,61.748 L33.2460872,55.828 L31.6460872,55.828 Z M48.0521744,59.768 C46.5521744,59.768 45.3721744,60.308 44.4921744,61.388 C43.6121744,62.408 43.1921744,63.688 43.1921744,65.208 C43.1921744,66.888 43.6321744,68.208 44.5521744,69.208 C45.4321744,70.168 46.6321744,70.668 48.1121744,70.668 C49.4521744,70.668 50.5521744,70.268 51.4121744,69.508 C52.1121744,68.868 52.5721744,68.068 52.8121744,67.068 L51.2121744,67.068 C50.9521744,67.788 50.6121744,68.328 50.1721744,68.688 C49.6521744,69.108 48.9521744,69.328 48.1121744,69.328 C47.1321744,69.328 46.3521744,69.008 45.7921744,68.368 C45.2321744,67.728 44.9321744,66.828 44.8521744,65.668 L53.0121744,65.668 C52.9721744,63.868 52.5721744,62.448 51.8121744,61.448 C50.9721744,60.328 49.7121744,59.768 48.0521744,59.768 Z M48.0921744,61.108 C50.0521744,61.108 51.1521744,62.208 51.3521744,64.428 L44.8921744,64.428 C44.9921744,63.408 45.3121744,62.608 45.8721744,62.008 C46.4321744,61.408 47.1721744,61.108 48.0921744,61.108 Z M68.5643488,55.828 C67.1243488,55.828 65.9443488,56.308 65.0643488,57.268 C64.1843488,58.208 63.7243488,59.488 63.7243488,61.088 L65.3643488,61.088 C65.3843488,59.828 65.6843488,58.868 66.2443488,58.228 C66.7643488,57.548 67.5243488,57.228 68.5043488,57.228 C69.4243488,57.228 70.1643488,57.468 70.6843488,57.948 C71.2043488,58.428 71.4643488,59.088 71.4643488,59.968 C71.4643488,60.888 71.0843488,61.748 70.3643488,62.528 C69.9843488,62.928 69.2443488,63.508 68.1243488,64.308 C66.6043488,65.348 65.5843488,66.208 65.0243488,66.848 C64.0643488,67.908 63.6043488,69.088 63.6043488,70.388 L73.1243488,70.388 L73.1243488,68.928 L65.6243488,68.928 C65.8843488,67.968 66.9243488,66.868 68.7443488,65.648 C70.2243488,64.648 71.2043488,63.868 71.7043488,63.348 C72.6243488,62.348 73.1043488,61.228 73.1043488,59.988 C73.1043488,58.748 72.6643488,57.728 71.8243488,56.968 C70.9643488,56.208 69.8843488,55.828 68.5643488,55.828 Z M81.390436,55.828 C79.670436,55.828 78.390436,56.568 77.530436,58.088 C76.770436,59.368 76.390436,61.088 76.390436,63.248 C76.390436,65.408 76.770436,67.128 77.530436,68.408 C78.390436,69.908 79.670436,70.668 81.390436,70.668 C83.090436,70.668 84.370436,69.908 85.250436,68.408 C86.010436,67.128 86.390436,65.408 86.390436,63.248 C86.390436,61.088 86.010436,59.368 85.250436,58.088 C84.370436,56.568 83.090436,55.828 81.390436,55.828 Z M81.390436,57.228 C82.670436,57.228 83.590436,57.908 84.150436,59.288 C84.550436,60.248 84.770436,61.568 84.770436,63.248 C84.770436,64.908 84.550436,66.228 84.150436,67.208 C83.590436,68.568 82.670436,69.268 81.390436,69.268 C80.110436,69.268 79.190436,68.568 78.630436,67.208 C78.230436,66.228 78.030436,64.908 78.030436,63.248 C78.030436,61.568 78.230436,60.248 78.630436,59.288 C79.190436,57.908 80.110436,57.228 81.390436,57.228 Z M94.6165232,55.828 C93.1765232,55.828 91.9965232,56.308 91.1165232,57.268 C90.2365232,58.208 89.7765232,59.488 89.7765232,61.088 L91.4165232,61.088 C91.4365232,59.828 91.7365232,58.868 92.2965232,58.228 C92.8165232,57.548 93.5765232,57.228 94.5565232,57.228 C95.4765232,57.228 96.2165232,57.468 96.7365232,57.948 C97.2565232,58.428 97.5165232,59.088 97.5165232,59.968 C97.5165232,60.888 97.1365232,61.748 96.4165232,62.528 C96.0365232,62.928 95.2965232,63.508 94.1765232,64.308 C92.6565232,65.348 91.6365232,66.208 91.0765232,66.848 C90.1165232,67.908 89.6565232,69.088 89.6565232,70.388 L99.1765232,70.388 L99.1765232,68.928 L91.6765232,68.928 C91.9365232,67.968 92.9765232,66.868 94.7965232,65.648 C96.2765232,64.648 97.2565232,63.868 97.7565232,63.348 C98.6765232,62.348 99.1565232,61.228 99.1565232,59.988 C99.1565232,58.748 98.7165232,57.728 97.8765232,56.968 C97.0165232,56.208 95.9365232,55.828 94.6165232,55.828 Z M103.54261,56.108 L102.78261,63.988 L104.34261,63.988 C104.62261,63.428 105.06261,62.988 105.62261,62.708 C106.16261,62.408 106.76261,62.268 107.44261,62.268 C108.48261,62.268 109.30261,62.568 109.88261,63.208 C110.48261,63.828 110.80261,64.708 110.80261,65.848 C110.80261,66.848 110.46261,67.668 109.82261,68.308 C109.16261,68.948 108.34261,69.268 107.34261,69.268 C106.46261,69.268 105.72261,69.048 105.16261,68.628 C104.52261,68.148 104.16261,67.448 104.08261,66.548 L102.46261,66.548 C102.56261,67.848 103.10261,68.888 104.10261,69.648 C104.98261,70.328 106.06261,70.668 107.32261,70.668 C108.72261,70.668 109.92261,70.228 110.88261,69.368 C111.90261,68.448 112.42261,67.268 112.42261,65.828 C112.42261,64.288 111.98261,63.088 111.14261,62.208 C110.30261,61.348 109.20261,60.928 107.84261,60.928 C107.18261,60.928 106.58261,61.028 106.02261,61.268 C105.40261,61.508 104.88261,61.868 104.48261,62.348 L104.40261,62.348 L104.88261,57.568 L111.84261,57.568 L111.84261,56.108 L103.54261,56.108 Z M122.634785,56.108 L127.514785,62.968 L122.254785,70.388 L124.274785,70.388 L128.514785,64.268 L132.774785,70.388 L134.794785,70.388 L129.494785,62.968 L134.414785,56.108 L132.394785,56.108 L128.514785,61.668 L124.654785,56.108 L122.634785,56.108 Z M136.920872,64.528 L136.920872,65.888 L147.020872,65.888 L147.020872,64.528 L136.920872,64.528 Z M154.666959,56.108 L149.046959,70.388 L150.806959,70.388 L152.326959,66.388 L158.886959,66.388 L160.406959,70.388 L162.186959,70.388 L156.566959,56.108 L154.666959,56.108 Z M152.846959,65.008 L155.586959,57.868 L155.666959,57.868 L158.366959,65.008 L152.846959,65.008 Z M170.753046,55.828 C168.653046,55.828 166.993046,56.568 165.773046,58.068 C164.613046,59.448 164.053046,61.188 164.053046,63.308 C164.053046,65.428 164.633046,67.168 165.793046,68.508 C167.033046,69.948 168.793046,70.668 171.053046,70.668 C172.233046,70.668 173.333046,70.508 174.373046,70.188 C175.353046,69.868 176.193046,69.448 176.873046,68.888 L176.873046,63.048 L170.773046,63.048 L170.773046,64.468 L175.253046,64.468 L175.253046,68.108 C174.753046,68.428 174.153046,68.708 173.453046,68.908 C172.733046,69.108 171.993046,69.228 171.213046,69.228 C169.353046,69.228 167.953046,68.668 167.013046,67.568 C166.133046,66.528 165.693046,65.108 165.693046,63.308 C165.693046,61.468 166.133046,60.008 167.053046,58.928 C167.973046,57.828 169.193046,57.288 170.753046,57.288 C172.013046,57.288 173.033046,57.588 173.813046,58.208 C174.553046,58.788 175.033046,59.608 175.253046,60.688 L176.893046,60.688 C176.633046,59.128 176.013046,57.948 175.013046,57.128 C173.953046,56.248 172.533046,55.828 170.753046,55.828 Z M180.759134,55.828 L180.759134,70.388 L182.339134,70.388 L182.339134,55.828 L180.759134,55.828 Z M200.211308,55.828 C198.011308,55.828 196.291308,56.568 195.091308,58.088 C193.991308,59.448 193.451308,61.188 193.451308,63.308 C193.451308,65.428 193.971308,67.148 195.051308,68.468 C196.231308,69.928 197.931308,70.668 200.151308,70.668 C201.671308,70.668 202.991308,70.228 204.091308,69.368 C205.271308,68.448 206.011308,67.148 206.331308,65.488 L204.751308,65.488 C204.471308,66.728 203.891308,67.668 203.051308,68.308 C202.251308,68.908 201.291308,69.208 200.151308,69.208 C198.471308,69.208 197.211308,68.648 196.331308,67.548 C195.491308,66.508 195.091308,65.088 195.091308,63.308 C195.091308,61.528 195.511308,60.108 196.351308,59.028 C197.251308,57.868 198.531308,57.288 200.191308,57.288 C201.311308,57.288 202.251308,57.548 203.031308,58.088 C203.831308,58.648 204.351308,59.448 204.551308,60.488 L206.131308,60.488 C205.931308,59.068 205.291308,57.928 204.211308,57.088 C203.131308,56.248 201.791308,55.828 200.211308,55.828 Z M214.057395,59.768 C212.497395,59.768 211.277395,60.288 210.357395,61.368 C209.477395,62.388 209.037395,63.668 209.037395,65.228 C209.037395,66.768 209.477395,68.048 210.357395,69.048 C211.277395,70.128 212.497395,70.668 214.057395,70.668 C215.597395,70.668 216.837395,70.128 217.777395,69.048 C218.637395,68.048 219.077395,66.768 219.077395,65.228 C219.077395,63.668 218.637395,62.388 217.757395,61.368 C216.837395,60.288 215.597395,59.768 214.057395,59.768 Z M214.057395,61.108 C215.137395,61.108 215.997395,61.528 216.637395,62.368 C217.177395,63.128 217.457395,64.068 217.457395,65.228 C217.457395,66.348 217.177395,67.308 216.637395,68.068 C215.997395,68.908 215.137395,69.328 214.057395,69.328 C212.957395,69.328 212.097395,68.908 211.497395,68.068 C210.937395,67.308 210.677395,66.368 210.677395,65.228 C210.677395,64.068 210.937395,63.128 211.497395,62.368 C212.097395,61.528 212.957395,61.108 214.057395,61.108 Z M227.023482,59.768 C226.343482,59.768 225.723482,59.928 225.163482,60.248 C224.603482,60.548 224.143482,60.988 223.783482,61.568 L223.783482,60.048 L222.183482,60.048 L222.183482,70.388 L223.783482,70.388 L223.783482,64.148 C223.843482,63.208 224.143482,62.468 224.703482,61.908 C225.223482,61.388 225.843482,61.128 226.563482,61.128 C228.363482,61.128 229.283482,62.128 229.283482,64.148 L229.283482,70.388 L230.883482,70.388 L230.883482,64.028 C230.883482,61.188 229.583482,59.768 227.023482,59.768 Z M238.52957,56.108 C237.64957,56.108 236.96957,56.348 236.50957,56.848 C236.06957,57.328 235.84957,57.988 235.84957,58.868 L235.84957,60.048 L233.24957,60.048 L233.24957,61.388 L235.84957,61.388 L235.84957,70.388 L237.44957,70.388 L237.44957,61.388 L240.36957,61.388 L240.36957,60.048 L237.44957,60.048 L237.44957,58.908 C237.44957,58.408 237.54957,58.048 237.74957,57.828 C237.94957,57.588 238.28957,57.488 238.72957,57.488 L240.50957,57.488 L240.50957,56.108 L238.52957,56.108 Z M247.135657,59.768 C245.635657,59.768 244.455657,60.308 243.575657,61.388 C242.695657,62.408 242.275657,63.688 242.275657,65.208 C242.275657,66.888 242.715657,68.208 243.635657,69.208 C244.515657,70.168 245.715657,70.668 247.195657,70.668 C248.535657,70.668 249.635657,70.268 250.495657,69.508 C251.195657,68.868 251.655657,68.068 251.895657,67.068 L250.295657,67.068 C250.035657,67.788 249.695657,68.328 249.255657,68.688 C248.735657,69.108 248.035657,69.328 247.195657,69.328 C246.215657,69.328 245.435657,69.008 244.875657,68.368 C244.315657,67.728 244.015657,66.828 243.935657,65.668 L252.095657,65.668 C252.055657,63.868 251.655657,62.448 250.895657,61.448 C250.055657,60.328 248.795657,59.768 247.135657,59.768 Z M247.175657,61.108 C249.135657,61.108 250.235657,62.208 250.435657,64.428 L243.975657,64.428 C244.075657,63.408 244.395657,62.608 244.955657,62.008 C245.515657,61.408 246.255657,61.108 247.175657,61.108 Z M259.541744,59.768 C258.821744,59.768 258.201744,59.988 257.661744,60.428 C257.221744,60.768 256.861744,61.248 256.581744,61.848 L256.581744,60.048 L255.001744,60.048 L255.001744,70.388 L256.581744,70.388 L256.581744,64.908 C256.581744,63.948 256.841744,63.128 257.401744,62.448 C257.941744,61.728 258.621744,61.388 259.421744,61.388 C259.921744,61.388 260.441744,61.448 260.961744,61.608 L260.961744,60.008 C260.581744,59.848 260.101744,59.768 259.541744,59.768 Z M267.587831,59.768 C266.087831,59.768 264.907831,60.308 264.027831,61.388 C263.147831,62.408 262.727831,63.688 262.727831,65.208 C262.727831,66.888 263.167831,68.208 264.087831,69.208 C264.967831,70.168 266.167831,70.668 267.647831,70.668 C268.987831,70.668 270.087831,70.268 270.947831,69.508 C271.647831,68.868 272.107831,68.068 272.347831,67.068 L270.747831,67.068 C270.487831,67.788 270.147831,68.328 269.707831,68.688 C269.187831,69.108 268.487831,69.328 267.647831,69.328 C266.667831,69.328 265.887831,69.008 265.327831,68.368 C264.767831,67.728 264.467831,66.828 264.387831,65.668 L272.547831,65.668 C272.507831,63.868 272.107831,62.448 271.347831,61.448 C270.507831,60.328 269.247831,59.768 267.587831,59.768 Z M267.627831,61.108 C269.587831,61.108 270.687831,62.208 270.887831,64.428 L264.427831,64.428 C264.527831,63.408 264.847831,62.608 265.407831,62.008 C265.967831,61.408 266.707831,61.108 267.627831,61.108 Z M280.293918,59.768 C279.613918,59.768 278.993918,59.928 278.433918,60.248 C277.873918,60.548 277.413918,60.988 277.053918,61.568 L277.053918,60.048 L275.453918,60.048 L275.453918,70.388 L277.053918,70.388 L277.053918,64.148 C277.113918,63.208 277.413918,62.468 277.973918,61.908 C278.493918,61.388 279.113918,61.128 279.833918,61.128 C281.633918,61.128 282.553918,62.128 282.553918,64.148 L282.553918,70.388 L284.153918,70.388 L284.153918,64.028 C284.153918,61.188 282.853918,59.768 280.293918,59.768 Z M292.120006,59.768 C290.580006,59.768 289.360006,60.308 288.480006,61.408 C287.660006,62.408 287.260006,63.688 287.260006,65.268 C287.260006,66.848 287.660006,68.128 288.480006,69.108 C289.340006,70.148 290.540006,70.668 292.100006,70.668 C293.380006,70.668 294.400006,70.328 295.180006,69.668 C295.980006,68.988 296.480006,67.968 296.720006,66.648 L295.120006,66.648 C294.880006,68.428 293.860006,69.328 292.100006,69.328 C291.060006,69.328 290.260006,68.948 289.720006,68.228 C289.160006,67.508 288.900006,66.508 288.900006,65.248 C288.900006,63.988 289.180006,62.988 289.740006,62.248 C290.320006,61.488 291.120006,61.108 292.120006,61.108 C292.940006,61.108 293.600006,61.288 294.120006,61.688 C294.620006,62.088 294.940006,62.688 295.080006,63.488 L296.660006,63.488 C296.480006,62.228 296.000006,61.288 295.200006,60.668 C294.420006,60.068 293.400006,59.768 292.120006,59.768 Z M303.886093,59.768 C302.386093,59.768 301.206093,60.308 300.326093,61.388 C299.446093,62.408 299.026093,63.688 299.026093,65.208 C299.026093,66.888 299.466093,68.208 300.386093,69.208 C301.266093,70.168 302.466093,70.668 303.946093,70.668 C305.286093,70.668 306.386093,70.268 307.246093,69.508 C307.946093,68.868 308.406093,68.068 308.646093,67.068 L307.046093,67.068 C306.786093,67.788 306.446093,68.328 306.006093,68.688 C305.486093,69.108 304.786093,69.328 303.946093,69.328 C302.966093,69.328 302.186093,69.008 301.626093,68.368 C301.066093,67.728 300.766093,66.828 300.686093,65.668 L308.846093,65.668 C308.806093,63.868 308.406093,62.448 307.646093,61.448 C306.806093,60.328 305.546093,59.768 303.886093,59.768 Z M303.926093,61.108 C305.886093,61.108 306.986093,62.208 307.186093,64.428 L300.726093,64.428 C300.826093,63.408 301.146093,62.608 301.706093,62.008 C302.266093,61.408 303.006093,61.108 303.926093,61.108 Z M0,4.388 L1,4.388 L1,70.388 L0,70.388 L0,4.388 Z M377.518,14.3 L377.518,17.15 L365.738,17.15 L363.914,26.574 L373.87,26.574 C371.59,28.702 367.638,30.678 362.09,32.426 L364.104,35.694 C370.374,33.3 374.858,30.488 377.518,27.22 L377.518,36.34 L381.014,36.34 L381.014,26.574 L391.122,26.574 C391.122,28.094 391.008,29.196 390.856,29.88 C390.628,30.602 389.982,30.982 388.918,30.982 C387.36,30.982 385.688,30.906 383.902,30.83 L384.776,34.25 C386.296,34.288 387.892,34.326 389.488,34.326 C391.768,34.288 393.212,33.642 393.858,32.35 C394.466,31.096 394.808,28.132 394.808,23.496 L381.014,23.496 L381.014,20.418 L393.44,20.418 L393.44,10.994 L365.016,10.994 L365.016,14.3 L377.518,14.3 Z M377.518,20.418 L377.518,23.496 L368.17,23.496 L368.93,20.418 L377.518,20.418 Z M381.014,17.15 L381.014,14.3 L389.754,14.3 L389.754,17.15 L381.014,17.15 Z M367.79,6.814 L369.766,6.814 C370.678,8.03 371.514,9.322 372.236,10.614 L375.466,9.436 C374.972,8.6 374.364,7.726 373.642,6.814 L379,6.814 L379,3.66 L369.538,3.66 C369.766,3.09 370.032,2.482 370.298,1.836 L366.802,1.076 C365.814,3.698 364.142,6.13 361.824,8.41 L364.978,10.348 C366.004,9.246 366.954,8.068 367.79,6.814 Z M383.94,6.662 L386.22,6.662 C387.208,7.916 388.044,9.246 388.728,10.614 L391.92,9.436 C391.426,8.562 390.78,7.65 390.02,6.662 L396.176,6.662 L396.176,3.508 L385.46,3.508 C385.65,2.976 385.84,2.406 386.068,1.836 L382.61,1.076 C381.736,3.698 380.292,6.168 378.278,8.448 L381.394,10.386 C382.344,9.246 383.18,7.992 383.94,6.662 Z M406.816,5.256 C405.904,6.244 404.764,7.118 403.396,7.954 C402.028,8.714 400.774,9.246 399.558,9.55 L399.558,13.654 C402.066,12.932 404.156,11.792 405.79,10.234 L405.79,32.388 L409.932,32.388 L409.932,5.256 L406.816,5.256 Z M424.904,4.724 C422.016,4.724 419.698,5.484 418.026,7.004 C416.506,8.372 415.746,10.082 415.746,12.096 C415.746,13.502 416.05,14.68 416.658,15.63 C417.342,16.656 418.368,17.416 419.736,17.948 L419.736,18.062 C418.406,18.366 417.304,19.126 416.392,20.342 C415.328,21.634 414.796,23.116 414.796,24.826 C414.796,27.22 415.67,29.158 417.418,30.678 C419.166,32.16 421.674,32.92 424.904,32.92 C428.096,32.92 430.604,32.16 432.39,30.678 C434.138,29.158 435.012,27.22 435.012,24.826 C435.012,23.116 434.48,21.634 433.416,20.342 C432.504,19.126 431.364,18.366 430.072,18.062 L430.072,17.948 C431.44,17.416 432.466,16.656 433.15,15.63 C433.758,14.68 434.062,13.502 434.062,12.096 C434.062,10.082 433.302,8.372 431.782,7.004 C430.072,5.484 427.792,4.724 424.904,4.724 Z M424.904,8.03 C426.576,8.03 427.906,8.448 428.894,9.36 C429.73,10.12 430.186,11.108 430.186,12.248 C430.186,13.54 429.806,14.566 429.122,15.326 C428.21,16.238 426.804,16.694 424.904,16.694 C422.966,16.694 421.56,16.238 420.686,15.326 C419.964,14.566 419.622,13.54 419.622,12.248 C419.622,11.108 420.04,10.12 420.914,9.36 C421.902,8.448 423.232,8.03 424.904,8.03 Z M424.904,19.772 C426.88,19.772 428.362,20.266 429.426,21.254 C430.414,22.128 430.908,23.306 430.908,24.826 C430.908,26.232 430.414,27.372 429.426,28.246 C428.324,29.12 426.804,29.576 424.904,29.576 C422.966,29.576 421.484,29.12 420.458,28.246 C419.394,27.372 418.9,26.232 418.9,24.826 C418.9,23.306 419.394,22.128 420.42,21.216 C421.408,20.228 422.928,19.772 424.904,19.772 Z M470.542,17.226 L460.776,17.226 L460.776,14.11 L457.28,14.11 L457.28,17.226 L447.248,17.226 L447.248,36.15 L450.706,36.15 L450.706,34.63 L467.122,34.63 L467.122,36.226 L470.542,36.226 L470.542,17.226 Z M450.706,31.4 L450.706,27.448 L457.28,27.448 L457.28,31.4 L450.706,31.4 Z M460.776,31.4 L460.776,27.448 L467.122,27.448 L467.122,31.4 L460.776,31.4 Z M450.706,24.332 L450.706,20.57 L457.28,20.57 L457.28,24.332 L450.706,24.332 Z M460.776,20.57 L467.122,20.57 L467.122,24.332 L460.776,24.332 L460.776,20.57 Z M466.4,5.94 L466.4,9.816 L445.272,9.816 L445.272,5.94 L466.4,5.94 Z M445.272,13.122 L470.086,13.122 L470.086,2.52 L441.624,2.52 L441.624,15.402 C441.586,22.812 440.332,28.854 437.9,33.566 L440.788,36.15 C443.752,30.374 445.234,23.458 445.272,15.402 L445.272,13.122 Z M491.442,1.076 L491.442,7.65 L477.952,7.65 L477.952,26.004 L481.562,26.004 L481.562,23.838 L491.442,23.838 L491.442,36.568 L495.166,36.568 L495.166,23.838 L505.084,23.838 L505.084,26.004 L508.694,26.004 L508.694,7.65 L495.166,7.65 L495.166,1.076 L491.442,1.076 Z M481.562,20.304 L481.562,11.184 L491.442,11.184 L491.442,20.304 L481.562,20.304 Z M495.166,20.304 L495.166,11.184 L505.084,11.184 L505.084,20.304 L495.166,20.304 Z M521.88,8.714 L521.88,11.982 L529.48,11.982 L529.48,16.656 L523.096,16.656 L523.096,19.848 L529.48,19.848 L529.48,25.13 L520.854,25.13 L520.854,28.398 L541.792,28.398 L541.792,25.13 L537.916,25.13 L539.968,24.218 C539.322,22.774 538.562,21.482 537.688,20.266 L534.838,21.178 C535.598,22.318 536.32,23.61 537.004,25.13 L533.128,25.13 L533.128,19.848 L539.512,19.848 L539.512,16.656 L533.128,16.656 L533.128,11.982 L540.69,11.982 L540.69,8.714 L521.88,8.714 Z M547.264,2.672 L515.344,2.672 L515.344,36.226 L518.992,36.226 L518.992,34.782 L543.616,34.782 L543.616,36.226 L547.264,36.226 L547.264,2.672 Z M518.992,31.4 L518.992,6.092 L543.616,6.092 L543.616,31.4 L518.992,31.4 Z M565.618,5.256 L565.618,32.388 L569.76,32.388 L569.76,21.178 L577.094,21.178 C578.652,21.178 579.83,21.482 580.666,22.166 C581.464,22.85 581.958,23.914 582.11,25.434 L582.452,28.816 C582.604,30.336 582.984,31.552 583.63,32.388 L588.114,32.388 C587.202,31.4 586.67,30.07 586.518,28.398 L586.062,24.066 C585.758,21.406 584.428,19.81 581.996,19.278 L581.996,19.202 C583.478,18.822 584.656,18.024 585.53,16.808 C586.29,15.706 586.67,14.452 586.67,13.008 C586.67,10.424 585.834,8.486 584.162,7.118 C582.566,5.864 580.362,5.256 577.626,5.256 L565.618,5.256 Z M569.76,8.79 L577.056,8.79 C578.956,8.79 580.324,9.132 581.236,9.854 C582.072,10.538 582.528,11.64 582.528,13.16 C582.528,14.604 582.072,15.706 581.198,16.466 C580.286,17.226 578.918,17.644 577.094,17.644 L569.76,17.644 L569.76,8.79 Z M619.578,1.152 C615.17,6.13 609.622,10.272 602.972,13.616 L604.91,17.112 C607.266,15.82 609.47,14.452 611.522,13.008 L611.522,16.01 L630.408,16.01 L630.408,13.16 C632.384,14.604 634.474,15.896 636.754,17.074 L638.73,13.578 C632.498,10.538 627.026,6.396 622.238,1.152 L619.578,1.152 Z M612.092,12.59 C615.512,10.12 618.438,7.384 620.908,4.382 C623.454,7.422 626.38,10.158 629.648,12.59 L612.092,12.59 Z M605.556,20.228 L605.556,23.724 L614.448,23.724 C613.004,26.384 611.256,28.892 609.204,31.286 C608.824,31.704 608.216,32.046 607.342,32.274 L608.33,35.39 C617.222,34.858 624.632,34.136 630.522,33.224 C631.244,34.25 631.928,35.276 632.574,36.264 L635.576,34.136 C633.676,31.362 631.016,28.094 627.558,24.332 L624.746,26.118 C626.114,27.638 627.368,29.12 628.508,30.602 C623.416,31.21 618.172,31.666 612.7,31.97 C614.942,29.614 616.918,26.878 618.628,23.724 L636.336,23.724 L636.336,20.228 L605.556,20.228 Z M662.024,1 L659.326,2.976 C661.492,5.94 663.24,8.638 664.57,11.146 L667.42,9.17 C666.166,6.814 664.38,4.116 662.024,1 Z M671.106,3.052 C670.042,10.804 667.914,17.226 664.646,22.356 C661.378,17.72 658.87,12.02 657.122,5.256 L654.006,7.004 C656.096,14.224 658.908,20.342 662.48,25.32 C659.668,28.778 656.172,31.438 652.03,33.338 L654.006,36.416 C658.224,34.516 661.834,31.78 664.836,28.284 C667.724,31.628 671.03,34.364 674.83,36.416 L676.958,33.3 C673.196,31.324 669.89,28.702 667.002,25.396 C670.802,19.848 673.31,12.628 674.526,3.774 L671.106,3.052 Z M646.634,1.532 L644.126,3.926 C646.748,5.94 648.8,7.84 650.282,9.664 L652.752,7.156 C651.08,5.294 649.028,3.432 646.634,1.532 Z M641.466,12.552 L641.466,16.01 L646.786,16.01 L646.786,29.652 C646.786,30.412 646.444,31.058 645.798,31.552 L647.166,34.858 C649.75,33.072 652.182,31.096 654.462,28.892 L653.474,25.054 C652.334,26.194 651.27,27.22 650.244,28.132 L650.244,12.552 L641.466,12.552 Z M360.34,56.108 L360.34,57.528 L365.38,57.528 L365.38,70.388 L367,70.388 L367,57.528 L372.04,57.528 L372.04,56.108 L360.34,56.108 Z M375.022315,55.828 L375.022315,70.388 L376.622315,70.388 L376.622315,64.488 C376.622315,63.528 376.882315,62.708 377.422315,62.068 C377.942315,61.428 378.602315,61.108 379.402315,61.108 C380.262315,61.108 380.922315,61.368 381.402315,61.888 C381.842315,62.408 382.082315,63.148 382.082315,64.108 L382.082315,70.388 L383.682315,70.388 L383.682315,63.868 C383.682315,62.548 383.362315,61.528 382.722315,60.828 C382.082315,60.108 381.142315,59.768 379.942315,59.768 C379.242315,59.768 378.622315,59.928 378.062315,60.248 C377.462315,60.588 376.982315,61.088 376.622315,61.748 L376.622315,55.828 L375.022315,55.828 Z M391.804631,59.768 C390.304631,59.768 389.124631,60.308 388.244631,61.388 C387.364631,62.408 386.944631,63.688 386.944631,65.208 C386.944631,66.888 387.384631,68.208 388.304631,69.208 C389.184631,70.168 390.384631,70.668 391.864631,70.668 C393.204631,70.668 394.304631,70.268 395.164631,69.508 C395.864631,68.868 396.324631,68.068 396.564631,67.068 L394.964631,67.068 C394.704631,67.788 394.364631,68.328 393.924631,68.688 C393.404631,69.108 392.704631,69.328 391.864631,69.328 C390.884631,69.328 390.104631,69.008 389.544631,68.368 C388.984631,67.728 388.684631,66.828 388.604631,65.668 L396.764631,65.668 C396.724631,63.868 396.324631,62.448 395.564631,61.448 C394.724631,60.328 393.464631,59.768 391.804631,59.768 Z M391.844631,61.108 C393.804631,61.108 394.904631,62.208 395.104631,64.428 L388.644631,64.428 C388.744631,63.408 389.064631,62.608 389.624631,62.008 C390.184631,61.408 390.924631,61.108 391.844631,61.108 Z M411.469262,56.108 C410.989262,56.648 410.429262,57.128 409.749262,57.568 C409.069262,57.968 408.389262,58.248 407.749262,58.428 L407.749262,60.068 C409.089262,59.668 410.209262,59.028 411.109262,58.108 L411.109262,70.388 L412.749262,70.388 L412.749262,56.108 L411.469262,56.108 Z M422.291577,55.828 C420.791577,55.828 419.631577,56.208 418.791577,56.988 C418.011577,57.688 417.631577,58.568 417.631577,59.608 C417.631577,60.368 417.811577,61.008 418.171577,61.528 C418.551577,62.088 419.111577,62.508 419.871577,62.768 L419.871577,62.808 C419.111577,62.988 418.491577,63.408 417.971577,64.048 C417.411577,64.728 417.131577,65.528 417.131577,66.448 C417.131577,67.708 417.571577,68.728 418.451577,69.488 C419.351577,70.268 420.631577,70.668 422.291577,70.668 C423.931577,70.668 425.211577,70.268 426.131577,69.488 C427.011577,68.728 427.451577,67.708 427.451577,66.448 C427.451577,65.528 427.171577,64.728 426.611577,64.048 C426.091577,63.408 425.451577,62.988 424.711577,62.808 L424.711577,62.768 C425.451577,62.508 426.011577,62.088 426.411577,61.528 C426.771577,61.008 426.951577,60.368 426.951577,59.608 C426.951577,58.568 426.551577,57.688 425.791577,56.988 C424.951577,56.208 423.771577,55.828 422.291577,55.828 Z M422.291577,57.168 C423.291577,57.168 424.091577,57.428 424.671577,57.948 C425.151577,58.388 425.411577,58.968 425.411577,59.668 C425.411577,60.388 425.191577,60.988 424.751577,61.428 C424.211577,61.948 423.391577,62.228 422.291577,62.228 C421.171577,62.228 420.351577,61.948 419.831577,61.428 C419.391577,60.988 419.171577,60.388 419.171577,59.668 C419.171577,58.968 419.411577,58.388 419.911577,57.948 C420.471577,57.428 421.271577,57.168 422.291577,57.168 Z M422.291577,63.508 C423.431577,63.508 424.331577,63.788 424.971577,64.368 C425.531577,64.888 425.831577,65.588 425.831577,66.448 C425.831577,67.288 425.531577,67.968 424.971577,68.488 C424.331577,69.048 423.451577,69.328 422.291577,69.328 C421.131577,69.328 420.231577,69.048 419.631577,68.508 C419.031577,67.988 418.751577,67.288 418.751577,66.448 C418.751577,65.588 419.031577,64.888 419.631577,64.368 C420.251577,63.788 421.131577,63.508 422.291577,63.508 Z M433.693893,56.708 L432.113893,57.368 L432.113893,60.048 L430.033893,60.048 L430.033893,61.388 L432.113893,61.388 L432.113893,67.968 C432.113893,68.748 432.273893,69.328 432.613893,69.728 C432.973893,70.168 433.593893,70.388 434.433893,70.388 L435.993893,70.388 L435.993893,69.048 L434.673893,69.048 C434.313893,69.048 434.053893,68.948 433.913893,68.788 C433.753893,68.628 433.693893,68.348 433.693893,67.968 L433.693893,61.388 L436.253893,61.388 L436.253893,60.048 L433.693893,60.048 L433.693893,56.708 Z M439.436208,55.828 L439.436208,70.388 L441.036208,70.388 L441.036208,64.488 C441.036208,63.528 441.296208,62.708 441.836208,62.068 C442.356208,61.428 443.016208,61.108 443.816208,61.108 C444.676208,61.108 445.336208,61.368 445.816208,61.888 C446.256208,62.408 446.496208,63.148 446.496208,64.108 L446.496208,70.388 L448.096208,70.388 L448.096208,63.868 C448.096208,62.548 447.776208,61.528 447.136208,60.828 C446.496208,60.108 445.556208,59.768 444.356208,59.768 C443.656208,59.768 443.036208,59.928 442.476208,60.248 C441.876208,60.588 441.396208,61.088 441.036208,61.748 L441.036208,55.828 L439.436208,55.828 Z M466.380839,55.828 C464.180839,55.828 462.460839,56.568 461.260839,58.088 C460.160839,59.448 459.620839,61.188 459.620839,63.308 C459.620839,65.428 460.140839,67.148 461.220839,68.468 C462.400839,69.928 464.100839,70.668 466.320839,70.668 C467.840839,70.668 469.160839,70.228 470.260839,69.368 C471.440839,68.448 472.180839,67.148 472.500839,65.488 L470.920839,65.488 C470.640839,66.728 470.060839,67.668 469.220839,68.308 C468.420839,68.908 467.460839,69.208 466.320839,69.208 C464.640839,69.208 463.380839,68.648 462.500839,67.548 C461.660839,66.508 461.260839,65.088 461.260839,63.308 C461.260839,61.528 461.680839,60.108 462.520839,59.028 C463.420839,57.868 464.700839,57.288 466.360839,57.288 C467.480839,57.288 468.420839,57.548 469.200839,58.088 C470.000839,58.648 470.520839,59.448 470.720839,60.488 L472.300839,60.488 C472.100839,59.068 471.460839,57.928 470.380839,57.088 C469.300839,56.248 467.960839,55.828 466.380839,55.828 Z M475.983155,55.828 L475.983155,70.388 L477.583155,70.388 L477.583155,64.488 C477.583155,63.528 477.843155,62.708 478.383155,62.068 C478.903155,61.428 479.563155,61.108 480.363155,61.108 C481.223155,61.108 481.883155,61.368 482.363155,61.888 C482.803155,62.408 483.043155,63.148 483.043155,64.108 L483.043155,70.388 L484.643155,70.388 L484.643155,63.868 C484.643155,62.548 484.323155,61.528 483.683155,60.828 C483.043155,60.108 482.103155,59.768 480.903155,59.768 C480.203155,59.768 479.583155,59.928 479.023155,60.248 C478.423155,60.588 477.943155,61.088 477.583155,61.748 L477.583155,55.828 L475.983155,55.828 Z M489.82547,56.148 C489.48547,56.148 489.20547,56.248 488.96547,56.488 C488.72547,56.688 488.62547,56.968 488.62547,57.328 C488.62547,57.668 488.72547,57.948 488.96547,58.188 C489.20547,58.408 489.48547,58.528 489.82547,58.528 C490.16547,58.528 490.44547,58.408 490.68547,58.188 C490.92547,57.948 491.04547,57.668 491.04547,57.328 C491.04547,56.968 490.92547,56.688 490.68547,56.488 C490.44547,56.248 490.16547,56.148 489.82547,56.148 Z M489.02547,60.048 L489.02547,70.388 L490.62547,70.388 L490.62547,60.048 L489.02547,60.048 Z M499.867785,59.768 C499.187785,59.768 498.567785,59.928 498.007785,60.248 C497.447785,60.548 496.987785,60.988 496.627785,61.568 L496.627785,60.048 L495.027785,60.048 L495.027785,70.388 L496.627785,70.388 L496.627785,64.148 C496.687785,63.208 496.987785,62.468 497.547785,61.908 C498.067785,61.388 498.687785,61.128 499.407785,61.128 C501.207785,61.128 502.127785,62.128 502.127785,64.148 L502.127785,70.388 L503.727785,70.388 L503.727785,64.028 C503.727785,61.188 502.427785,59.768 499.867785,59.768 Z M512.110101,59.768 C510.870101,59.768 509.890101,60.008 509.130101,60.488 C508.290101,61.008 507.750101,61.828 507.530101,62.908 L509.110101,63.028 C509.270101,62.368 509.610101,61.868 510.150101,61.548 C510.630101,61.228 511.250101,61.088 512.010101,61.088 C513.810101,61.088 514.710101,61.948 514.710101,63.688 L514.710101,64.228 L512.230101,64.268 C510.670101,64.288 509.470101,64.588 508.630101,65.148 C507.670101,65.748 507.210101,66.628 507.210101,67.808 C507.210101,68.648 507.530101,69.348 508.170101,69.888 C508.790101,70.408 509.610101,70.668 510.650101,70.668 C511.610101,70.668 512.470101,70.448 513.230101,70.028 C513.870101,69.668 514.410101,69.208 514.810101,68.648 L514.810101,70.388 L516.310101,70.388 L516.310101,63.748 C516.310101,62.548 515.990101,61.608 515.390101,60.928 C514.670101,60.148 513.590101,59.768 512.110101,59.768 Z M514.710101,65.428 L514.710101,66.308 C514.710101,67.108 514.330101,67.828 513.590101,68.448 C512.830101,69.088 511.970101,69.408 510.990101,69.408 C510.350101,69.408 509.830101,69.248 509.430101,68.948 C509.030101,68.628 508.850101,68.248 508.850101,67.768 C508.850101,66.268 510.010101,65.508 512.330101,65.468 L514.710101,65.428 Z M519.952416,64.528 L519.952416,65.888 L530.052416,65.888 L530.052416,64.528 L519.952416,64.528 Z M533.894732,56.108 L533.894732,70.388 L535.534732,70.388 L535.534732,64.248 L539.854732,64.248 C540.754732,64.248 541.434732,64.408 541.914732,64.768 C542.434732,65.128 542.734732,65.748 542.814732,66.588 L542.994732,68.488 C543.054732,69.288 543.254732,69.908 543.574732,70.388 L545.354732,70.388 C544.934732,69.868 544.674732,69.168 544.594732,68.288 L544.374732,66.088 C544.214732,64.648 543.454732,63.788 542.094732,63.488 L542.094732,63.448 C542.914732,63.248 543.554732,62.848 544.034732,62.208 C544.474732,61.588 544.694732,60.888 544.694732,60.088 C544.694732,58.768 544.254732,57.768 543.414732,57.088 C542.594732,56.428 541.474732,56.108 540.054732,56.108 L533.894732,56.108 Z M535.534732,57.528 L539.854732,57.528 C540.954732,57.528 541.774732,57.748 542.294732,58.188 C542.774732,58.608 543.034732,59.268 543.034732,60.148 C543.034732,60.988 542.774732,61.628 542.274732,62.088 C541.714732,62.568 540.894732,62.828 539.854732,62.828 L535.534732,62.828 L535.534732,57.528 Z M563.039363,55.828 C560.839363,55.828 559.119363,56.568 557.919363,58.088 C556.819363,59.448 556.279363,61.188 556.279363,63.308 C556.279363,65.428 556.799363,67.148 557.879363,68.468 C559.059363,69.928 560.759363,70.668 562.979363,70.668 C564.499363,70.668 565.819363,70.228 566.919363,69.368 C568.099363,68.448 568.839363,67.148 569.159363,65.488 L567.579363,65.488 C567.299363,66.728 566.719363,67.668 565.879363,68.308 C565.079363,68.908 564.119363,69.208 562.979363,69.208 C561.299363,69.208 560.039363,68.648 559.159363,67.548 C558.319363,66.508 557.919363,65.088 557.919363,63.308 C557.919363,61.528 558.339363,60.108 559.179363,59.028 C560.079363,57.868 561.359363,57.288 563.019363,57.288 C564.139363,57.288 565.079363,57.548 565.859363,58.088 C566.659363,58.648 567.179363,59.448 567.379363,60.488 L568.959363,60.488 C568.759363,59.068 568.119363,57.928 567.039363,57.088 C565.959363,56.248 564.619363,55.828 563.039363,55.828 Z M577.261678,59.768 C575.701678,59.768 574.481678,60.288 573.561678,61.368 C572.681678,62.388 572.241678,63.668 572.241678,65.228 C572.241678,66.768 572.681678,68.048 573.561678,69.048 C574.481678,70.128 575.701678,70.668 577.261678,70.668 C578.801678,70.668 580.041678,70.128 580.981678,69.048 C581.841678,68.048 582.281678,66.768 582.281678,65.228 C582.281678,63.668 581.841678,62.388 580.961678,61.368 C580.041678,60.288 578.801678,59.768 577.261678,59.768 Z M577.261678,61.108 C578.341678,61.108 579.201678,61.528 579.841678,62.368 C580.381678,63.128 580.661678,64.068 580.661678,65.228 C580.661678,66.348 580.381678,67.308 579.841678,68.068 C579.201678,68.908 578.341678,69.328 577.261678,69.328 C576.161678,69.328 575.301678,68.908 574.701678,68.068 C574.141678,67.308 573.881678,66.368 573.881678,65.228 C573.881678,64.068 574.141678,63.128 574.701678,62.368 C575.301678,61.528 576.161678,61.108 577.261678,61.108 Z M590.603994,59.768 C589.923994,59.768 589.303994,59.928 588.743994,60.248 C588.183994,60.548 587.723994,60.988 587.363994,61.568 L587.363994,60.048 L585.763994,60.048 L585.763994,70.388 L587.363994,70.388 L587.363994,64.148 C587.423994,63.208 587.723994,62.468 588.283994,61.908 C588.803994,61.388 589.423994,61.128 590.143994,61.128 C591.943994,61.128 592.863994,62.128 592.863994,64.148 L592.863994,70.388 L594.463994,70.388 L594.463994,64.028 C594.463994,61.188 593.163994,59.768 590.603994,59.768 Z M602.486309,56.108 C601.606309,56.108 600.926309,56.348 600.466309,56.848 C600.026309,57.328 599.806309,57.988 599.806309,58.868 L599.806309,60.048 L597.206309,60.048 L597.206309,61.388 L599.806309,61.388 L599.806309,70.388 L601.406309,70.388 L601.406309,61.388 L604.326309,61.388 L604.326309,60.048 L601.406309,60.048 L601.406309,58.908 C601.406309,58.408 601.506309,58.048 601.706309,57.828 C601.906309,57.588 602.246309,57.488 602.686309,57.488 L604.466309,57.488 L604.466309,56.108 L602.486309,56.108 Z M611.468625,59.768 C609.968625,59.768 608.788625,60.308 607.908625,61.388 C607.028625,62.408 606.608625,63.688 606.608625,65.208 C606.608625,66.888 607.048625,68.208 607.968625,69.208 C608.848625,70.168 610.048625,70.668 611.528625,70.668 C612.868625,70.668 613.968625,70.268 614.828625,69.508 C615.528625,68.868 615.988625,68.068 616.228625,67.068 L614.628625,67.068 C614.368625,67.788 614.028625,68.328 613.588625,68.688 C613.068625,69.108 612.368625,69.328 611.528625,69.328 C610.548625,69.328 609.768625,69.008 609.208625,68.368 C608.648625,67.728 608.348625,66.828 608.268625,65.668 L616.428625,65.668 C616.388625,63.868 615.988625,62.448 615.228625,61.448 C614.388625,60.328 613.128625,59.768 611.468625,59.768 Z M611.508625,61.108 C613.468625,61.108 614.568625,62.208 614.768625,64.428 L608.308625,64.428 C608.408625,63.408 608.728625,62.608 609.288625,62.008 C609.848625,61.408 610.588625,61.108 611.508625,61.108 Z M624.25094,59.768 C623.53094,59.768 622.91094,59.988 622.37094,60.428 C621.93094,60.768 621.57094,61.248 621.29094,61.848 L621.29094,60.048 L619.71094,60.048 L619.71094,70.388 L621.29094,70.388 L621.29094,64.908 C621.29094,63.948 621.55094,63.128 622.11094,62.448 C622.65094,61.728 623.33094,61.388 624.13094,61.388 C624.63094,61.388 625.15094,61.448 625.67094,61.608 L625.67094,60.008 C625.29094,59.848 624.81094,59.768 624.25094,59.768 Z M632.673255,59.768 C631.173255,59.768 629.993255,60.308 629.113255,61.388 C628.233255,62.408 627.813255,63.688 627.813255,65.208 C627.813255,66.888 628.253255,68.208 629.173255,69.208 C630.053255,70.168 631.253255,70.668 632.733255,70.668 C634.073255,70.668 635.173255,70.268 636.033255,69.508 C636.733255,68.868 637.193255,68.068 637.433255,67.068 L635.833255,67.068 C635.573255,67.788 635.233255,68.328 634.793255,68.688 C634.273255,69.108 633.573255,69.328 632.733255,69.328 C631.753255,69.328 630.973255,69.008 630.413255,68.368 C629.853255,67.728 629.553255,66.828 629.473255,65.668 L637.633255,65.668 C637.593255,63.868 637.193255,62.448 636.433255,61.448 C635.593255,60.328 634.333255,59.768 632.673255,59.768 Z M632.713255,61.108 C634.673255,61.108 635.773255,62.208 635.973255,64.428 L629.513255,64.428 C629.613255,63.408 629.933255,62.608 630.493255,62.008 C631.053255,61.408 631.793255,61.108 632.713255,61.108 Z M645.755571,59.768 C645.075571,59.768 644.455571,59.928 643.895571,60.248 C643.335571,60.548 642.875571,60.988 642.515571,61.568 L642.515571,60.048 L640.915571,60.048 L640.915571,70.388 L642.515571,70.388 L642.515571,64.148 C642.575571,63.208 642.875571,62.468 643.435571,61.908 C643.955571,61.388 644.575571,61.128 645.295571,61.128 C647.095571,61.128 648.015571,62.128 648.015571,64.148 L648.015571,70.388 L649.615571,70.388 L649.615571,64.028 C649.615571,61.188 648.315571,59.768 645.755571,59.768 Z M657.957886,59.768 C656.417886,59.768 655.197886,60.308 654.317886,61.408 C653.497886,62.408 653.097886,63.688 653.097886,65.268 C653.097886,66.848 653.497886,68.128 654.317886,69.108 C655.177886,70.148 656.377886,70.668 657.937886,70.668 C659.217886,70.668 660.237886,70.328 661.017886,69.668 C661.817886,68.988 662.317886,67.968 662.557886,66.648 L660.957886,66.648 C660.717886,68.428 659.697886,69.328 657.937886,69.328 C656.897886,69.328 656.097886,68.948 655.557886,68.228 C654.997886,67.508 654.737886,66.508 654.737886,65.248 C654.737886,63.988 655.017886,62.988 655.577886,62.248 C656.157886,61.488 656.957886,61.108 657.957886,61.108 C658.777886,61.108 659.437886,61.288 659.957886,61.688 C660.457886,62.088 660.777886,62.688 660.917886,63.488 L662.497886,63.488 C662.317886,62.228 661.837886,61.288 661.037886,60.668 C660.257886,60.068 659.237886,59.768 657.957886,59.768 Z M670.100202,59.768 C668.600202,59.768 667.420202,60.308 666.540202,61.388 C665.660202,62.408 665.240202,63.688 665.240202,65.208 C665.240202,66.888 665.680202,68.208 666.600202,69.208 C667.480202,70.168 668.680202,70.668 670.160202,70.668 C671.500202,70.668 672.600202,70.268 673.460202,69.508 C674.160202,68.868 674.620202,68.068 674.860202,67.068 L673.260202,67.068 C673.000202,67.788 672.660202,68.328 672.220202,68.688 C671.700202,69.108 671.000202,69.328 670.160202,69.328 C669.180202,69.328 668.400202,69.008 667.840202,68.368 C667.280202,67.728 666.980202,66.828 666.900202,65.668 L675.060202,65.668 C675.020202,63.868 674.620202,62.448 673.860202,61.448 C673.020202,60.328 671.760202,59.768 670.100202,59.768 Z M670.140202,61.108 C672.100202,61.108 673.200202,62.208 673.400202,64.428 L666.940202,64.428 C667.040202,63.408 667.360202,62.608 667.920202,62.008 C668.480202,61.408 669.220202,61.108 670.140202,61.108 Z M343,4.388 L344,4.388 L344,70.388 L343,70.388 L343,4.388 Z" fill-rule="nonzero"></path>
            </g>
        </g>
    </g>
</svg>